<svg id="Слой_2" data-name="Слой 2" xmlns="http://www.w3.org/2000/svg" width="113.77" height="117.38" viewBox="0 0 113.77 117.38"><defs><style>.cls-1{fill:none;stroke:#fff;stroke-miterlimit:10;stroke-width:11px;}</style></defs><path class="cls-1" d="M16.5,68.5c0-3.55,0-9.11,0-16,0-1.34,0-6.67,0-13,.07-12.42.32-15.39,2-19a18.17,18.17,0,0,1,5-7c4.38-3.54,9.07-3.13,24-3,3.29,0,8.5.05,15,0L78,31l26.5-.5a14.72,14.72,0,0,1,9,3A14.88,14.88,0,0,1,119,43V98.09a8.14,8.14,0,0,1-.5,5.41c-1.84,3.84-6.15,4.46-6.5,4.5l-42.5.5" transform="translate(-10.98 -4.92)"/><path class="cls-1" d="M67.5,57.5h-10c-3.84,0-5.79,0-7,1-1.9,1.52-2,4.18-2,9-.07,9,0,13.45,0,17,.1,8,.32,9.55,0,14-.42,5.83-.62,8.74-2,11a15.59,15.59,0,0,1-16,7,15,15,0,0,1-12-13c-.71-7.25,4.4-13,9-15,1.84-.79,5.25-.87,12-1,3.73-.07,6.83,0,9,0" transform="translate(-10.98 -4.92)"/></svg>